999
dxfrw 0.5.11
0
SECTION
2
HEADER
9
$ACADVER
1
AC1021
9
$HANDSEED
5
20000
9
$DWGCODEPAGE
3
ANSI_1252
9
$INSBASE
10
0
20
0
30
0
9
$EXTMIN
10
-148.352813742
20
-133.5
30
0
9
$EXTMAX
10
148.352813742
20
133.5
30
0
9
$LIMMIN
10
0
20
0
9
$LIMMAX
10
420
20
297
9
$ORTHOMODE
70
0
9
$LTSCALE
40
1
9
$TEXTSTYLE
7
STANDARD
9
$CLAYER
8
0 - arm
9
$DIMASZ
40
2.5
9
$DIMLFAC
40
1
9
$DIMSCALE
40
1
9
$DIMEXO
40
0.625
9
$DIMEXE
40
1.25
9
$DIMTXT
40
2.5
9
$DIMTSZ
40
0
9
$DIMAUNIT
70
0
9
$DIMADEC
70
0
9
$DIMLUNIT
70
2
9
$DIMSTYLE
2
STANDARD
9
$DIMGAP
40
0.625
9
$DIMTIH
70
0
9
$LUNITS
70
2
9
$LUPREC
70
4
9
$AUNITS
70
0
9
$AUPREC
70
2
9
$SPLINESEGS
70
8
9
$GRIDMODE
70
1
9
$SNAPSTYLE
70
0
9
$PINSBASE
10
0
20
0
30
0
9
$PLIMMIN
10
0
20
0
9
$PLIMMAX
10
210
20
297
9
$INSUNITS
70
4
9
$PSVPSCALE
40
1
0
ENDSEC
0
SECTION
2
CLASSES
0
ENDSEC
0
SECTION
2
TABLES
0
TABLE
2
VPORT
5
8
330
0
100
AcDbSymbolTable
70
1
0
VPORT
5
31
330
2
100
AcDbSymbolTableRecord
100
AcDbViewportTableRecord
2
*ACTIVE
70
0
10
0
20
0
11
1
21
1
12
143.484980293
22
56.5373653693
13
0
23
0
14
10
24
10
15
10
25
10
16
0
26
0
36
1
17
0
27
0
37
0
40
284.400080342
41
2.36596385542
42
50
43
0
44
0
50
0
51
0
71
0
72
100
73
1
74
3
75
0
76
1
77
0
78
0
281
0
65
1
110
0
120
0
130
0
111
1
121
0
131
0
112
0
122
1
132
0
79
0
146
0
348
10020
60
7
61
5
292
1
282
1
141
0
142
0
63
250
421
3358443
0
ENDTAB
0
TABLE
2
LTYPE
5
5
330
0
100
AcDbSymbolTable
70
4
0
LTYPE
5
14
330
5
100
AcDbSymbolTableRecord
100
AcDbLinetypeTableRecord
2
ByBlock
70
0
3

72
65
73
0
40
0
0
LTYPE
5
15
330
5
100
AcDbSymbolTableRecord
100
AcDbLinetypeTableRecord
2
ByLayer
70
0
3

72
65
73
0
40
0
0
LTYPE
5
16
330
5
100
AcDbSymbolTableRecord
100
AcDbLinetypeTableRecord
2
Continuous
70
0
3
Solid line
72
65
73
0
40
0
0
LTYPE
5
32
330
5
100
AcDbSymbolTableRecord
100
AcDbLinetypeTableRecord
2
DOT
70
0
3
Dot . . . . . . . . . . . . . . . . . . . . . .
72
65
73
2
40
6.35
49
0
74
0
49
-6.35
74
0
0
LTYPE
5
33
330
5
100
AcDbSymbolTableRecord
100
AcDbLinetypeTableRecord
2
DOT2
70
0
3
Dot (.5x) .....................................
72
65
73
2
40
3.175
49
0
74
0
49
-3.175
74
0
0
LTYPE
5
34
330
5
100
AcDbSymbolTableRecord
100
AcDbLinetypeTableRecord
2
DOTX2
70
0
3
Dot (2x) .  .  .  .  .  .  .  .  .  .  .  .  .
72
65
73
2
40
12.7
49
0
74
0
49
-12.7
74
0
0
LTYPE
5
35
330
5
100
AcDbSymbolTableRecord
100
AcDbLinetypeTableRecord
2
DASHED
70
0
3
Dot . . . . . . . . . . . . . . . . . . . . . .
72
65
73
2
40
19.05
49
12.7
74
0
49
-6.35
74
0
0
LTYPE
5
36
330
5
100
AcDbSymbolTableRecord
100
AcDbLinetypeTableRecord
2
DASHED2
70
0
3
Dashed (.5x) _ _ _ _ _ _ _ _ _ _ _ _ _ _ _ _ _
72
65
73
2
40
9.525
49
6.35
74
0
49
-3.175
74
0
0
LTYPE
5
37
330
5
100
AcDbSymbolTableRecord
100
AcDbLinetypeTableRecord
2
DASHEDX2
70
0
3
Dashed (2x) ____  ____  ____  ____  ____  ___
72
65
73
2
40
38.1
49
25.4
74
0
49
-12.7
74
0
0
LTYPE
5
38
330
5
100
AcDbSymbolTableRecord
100
AcDbLinetypeTableRecord
2
DASHDOT
70
0
3
Dash dot __ . __ . __ . __ . __ . __ . __ . __
72
65
73
4
40
25.4
49
12.7
74
0
49
-6.35
74
0
49
0
74
0
49
-6.35
74
0
0
LTYPE
5
39
330
5
100
AcDbSymbolTableRecord
100
AcDbLinetypeTableRecord
2
DASHDOT2
70
0
3
Dash dot (.5x) _._._._._._._._._._._._._._._.
72
65
73
4
40
12.7
49
6.35
74
0
49
-3.175
74
0
49
0
74
0
49
-3.175
74
0
0
LTYPE
5
3A
330
5
100
AcDbSymbolTableRecord
100
AcDbLinetypeTableRecord
2
DASHDOTX2
70
0
3
Dash dot (2x) ____  .  ____  .  ____  .  ___
72
65
73
4
40
50.8
49
25.4
74
0
49
-12.7
74
0
49
0
74
0
49
-12.7
74
0
0
LTYPE
5
3B
330
5
100
AcDbSymbolTableRecord
100
AcDbLinetypeTableRecord
2
DIVIDE
70
0
3
Divide ____ . . ____ . . ____ . . ____ . . ____
72
65
73
6
40
31.75
49
12.7
74
0
49
-6.35
74
0
49
0
74
0
49
-6.35
74
0
49
0
74
0
49
-6.35
74
0
0
LTYPE
5
3C
330
5
100
AcDbSymbolTableRecord
100
AcDbLinetypeTableRecord
2
DIVIDE2
70
0
3
Divide (.5x) __..__..__..__..__..__..__..__.._
72
65
73
6
40
15.875
49
6.35
74
0
49
-3.175
74
0
49
0
74
0
49
-3.175
74
0
49
0
74
0
49
-3.175
74
0
0
LTYPE
5
3D
330
5
100
AcDbSymbolTableRecord
100
AcDbLinetypeTableRecord
2
DIVIDEX2
70
0
3
Divide (2x) ________  .  .  ________  .  .  _
72
65
73
6
40
63.5
49
25.4
74
0
49
-12.7
74
0
49
0
74
0
49
-12.7
74
0
49
0
74
0
49
-12.7
74
0
0
LTYPE
5
3E
330
5
100
AcDbSymbolTableRecord
100
AcDbLinetypeTableRecord
2
BORDER
70
0
3
Border __ __ . __ __ . __ __ . __ __ . __ __ .
72
65
73
6
40
44.45
49
12.7
74
0
49
-6.35
74
0
49
12.7
74
0
49
-6.35
74
0
49
0
74
0
49
-6.35
74
0
0
LTYPE
5
3F
330
5
100
AcDbSymbolTableRecord
100
AcDbLinetypeTableRecord
2
BORDER2
70
0
3
Border (.5x) __.__.__.__.__.__.__.__.__.__.__.
72
65
73
6
40
22.225
49
6.35
74
0
49
-3.175
74
0
49
6.35
74
0
49
-3.175
74
0
49
0
74
0
49
-3.175
74
0
0
LTYPE
5
40
330
5
100
AcDbSymbolTableRecord
100
AcDbLinetypeTableRecord
2
BORDERX2
70
0
3
Border (2x) ____  ____  .  ____  ____  .  ___
72
65
73
6
40
88.9
49
25.4
74
0
49
-12.7
74
0
49
25.4
74
0
49
-12.7
74
0
49
0
74
0
49
-12.7
74
0
0
LTYPE
5
41
330
5
100
AcDbSymbolTableRecord
100
AcDbLinetypeTableRecord
2
CENTER
70
0
3
Center ____ _ ____ _ ____ _ ____ _ ____ _ ____
72
65
73
4
40
50.8
49
31.75
74
0
49
-6.35
74
0
49
6.35
74
0
49
-6.35
74
0
0
LTYPE
5
42
330
5
100
AcDbSymbolTableRecord
100
AcDbLinetypeTableRecord
2
CENTER2
70
0
3
Center (.5x) ___ _ ___ _ ___ _ ___ _ ___ _ ___
72
65
73
4
40
28.575
49
19.05
74
0
49
-3.175
74
0
49
3.175
74
0
49
-3.175
74
0
0
LTYPE
5
43
330
5
100
AcDbSymbolTableRecord
100
AcDbLinetypeTableRecord
2
CENTERX2
70
0
3
Center (2x) ________  __  ________  __  _____
72
65
73
4
40
101.6
49
63.5
74
0
49
-12.7
74
0
49
12.7
74
0
49
-12.7
74
0
0
ENDTAB
0
TABLE
2
LAYER
5
2
330
0
100
AcDbSymbolTable
70
1
0
LAYER
5
10
330
2
100
AcDbSymbolTableRecord
100
AcDbLayerTableRecord
2
0
70
0
62
7
6
CONTINUOUS
370
0
390
F
0
LAYER
5
44
330
2
100
AcDbSymbolTableRecord
100
AcDbLayerTableRecord
2
0 - arm
70
0
62
7
6
CONTINUOUS
370
0
390
F
0
LAYER
5
45
330
2
100
AcDbSymbolTableRecord
100
AcDbLayerTableRecord
2
1 - construction
70
1
62
2
6
DOT2
290
0
370
0
390
F
0
LAYER
5
46
330
2
100
AcDbSymbolTableRecord
100
AcDbLayerTableRecord
2
220 5"
70
4
62
1
6
DOT2
370
0
390
F
0
LAYER
5
47
330
2
100
AcDbSymbolTableRecord
100
AcDbLayerTableRecord
2
250 5" 6"
70
5
62
5
6
DOT2
370
0
390
F
0
LAYER
5
48
330
2
100
AcDbSymbolTableRecord
100
AcDbLayerTableRecord
2
Bolt heads
70
1
62
1
6
DOT2
370
0
390
F
0
LAYER
5
49
330
2
100
AcDbSymbolTableRecord
100
AcDbLayerTableRecord
2
NanoTech 1300
70
5
62
136
420
32896
6
DASHED2
370
0
390
F
0
LAYER
5
4A
330
2
100
AcDbSymbolTableRecord
100
AcDbLayerTableRecord
2
Naze32
70
4
62
1
6
DOT2
370
0
390
F
0
LAYER
5
4B
330
2
100
AcDbSymbolTableRecord
100
AcDbLayerTableRecord
2
Zippy 2200
70
5
62
2
6
DASHED2
370
0
390
F
0
ENDTAB
0
TABLE
2
STYLE
5
3
330
0
100
AcDbSymbolTable
70
3
0
STYLE
5
4C
330
2
100
AcDbSymbolTableRecord
100
AcDbTextStyleTableRecord
2
Standard
70
0
40
0
41
1
50
0
71
0
42
1
3
txt
4

0
ENDTAB
0
TABLE
2
VIEW
5
6
330
0
100
AcDbSymbolTable
70
0
0
ENDTAB
0
TABLE
2
UCS
5
7
330
0
100
AcDbSymbolTable
70
0
0
ENDTAB
0
TABLE
2
APPID
5
9
330
0
100
AcDbSymbolTable
70
1
0
APPID
5
12
330
9
100
AcDbSymbolTableRecord
100
AcDbRegAppTableRecord
2
ACAD
70
0
0
ENDTAB
0
TABLE
2
DIMSTYLE
5
A
330
0
100
AcDbSymbolTable
70
1
100
AcDbDimStyleTable
71
1
0
DIMSTYLE
105
4D
330
A
100
AcDbSymbolTableRecord
100
AcDbDimStyleTableRecord
2
Standard
70
0
40
1
41
2.5
42
0.625
43
0.38
44
1.25
45
0
46
0
47
0
48
0
140
2.5
141
0.09
142
0
143
25.4
144
1
145
0
146
1
147
0.625
148
0
71
0
72
0
73
0
74
1
75
0
76
0
77
0
78
0
79
0
170
0
171
2
172
0
173
0
174
0
175
0
176
0
177
0
178
0
179
0
271
4
272
4
273
2
274
2
275
0
276
0
277
2
278
46
279
0
280
0
281
0
282
0
283
1
284
0
285
0
286
0
288
0
289
3
340
Standard
341

371
-2
372
-2
0
ENDTAB
0
TABLE
2
BLOCK_RECORD
5
1
330
0
100
AcDbSymbolTable
70
2
0
BLOCK_RECORD
5
1F
330
1
100
AcDbSymbolTableRecord
100
AcDbBlockTableRecord
2
*Model_Space
70
0
280
1
281
0
0
BLOCK_RECORD
5
1E
330
1
100
AcDbSymbolTableRecord
100
AcDbBlockTableRecord
2
*Paper_Space
70
0
280
1
281
0
0
ENDTAB
0
ENDSEC
0
SECTION
2
BLOCKS
0
BLOCK
5
20
330
1F
100
AcDbEntity
8
0
100
AcDbBlockBegin
2
*Model_Space
70
0
10
0
20
0
30
0
3
*Model_Space
1

0
ENDBLK
5
21
330
1F
100
AcDbEntity
8
0
100
AcDbBlockEnd
0
BLOCK
5
1C
330
1B
100
AcDbEntity
8
0
100
AcDbBlockBegin
2
*Paper_Space
70
0
10
0
20
0
30
0
3
*Paper_Space
1

0
ENDBLK
5
1D
330
1F
100
AcDbEntity
8
0
100
AcDbBlockEnd
0
ENDSEC
0
SECTION
2
ENTITIES
0
CIRCLE
5
4E
100
AcDbEntity
8
250 5" 6"
6
ByLayer
62
256
370
-1
100
AcDbCircle
10
0
20
0
40
125
0
CIRCLE
5
4F
100
AcDbEntity
8
0
6
ByLayer
62
256
370
-1
100
AcDbCircle
10
-15.25
20
-15.25
40
1.5
0
CIRCLE
5
50
100
AcDbEntity
8
0
6
ByLayer
62
256
370
-1
100
AcDbCircle
10
15.25
20
-15.25
40
1.5
0
CIRCLE
5
51
100
AcDbEntity
8
0
6
ByLayer
62
256
370
-1
100
AcDbCircle
10
-15.25
20
15.25
40
1.5
0
CIRCLE
5
52
100
AcDbEntity
8
0
6
ByLayer
62
256
370
-1
100
AcDbCircle
10
15.25
20
15.25
40
1.5
0
CIRCLE
5
53
100
AcDbEntity
8
250 5" 6"
6
ByLayer
62
256
370
-1
100
AcDbCircle
10
-94.3451111611
20
82
40
77
0
CIRCLE
5
54
100
AcDbEntity
8
250 5" 6"
6
ByLayer
62
256
370
-1
100
AcDbCircle
10
-94.3451111611
20
82
40
63.5
0
CIRCLE
5
55
100
AcDbEntity
8
220 5"
6
ByLayer
62
256
370
-1
100
AcDbCircle
10
-84.8528137424
20
70
40
63.5
0
CIRCLE
5
56
100
AcDbEntity
8
220 5"
6
ByLayer
62
256
370
-1
100
AcDbCircle
10
0
20
0
40
110
0
CIRCLE
5
57
100
AcDbEntity
8
220 5"
6
ByLayer
62
256
370
-1
100
AcDbCircle
10
-84.8528137424
20
-70
40
63.5
0
CIRCLE
5
58
100
AcDbEntity
8
220 5"
6
ByLayer
62
256
370
-1
100
AcDbCircle
10
84.8528137424
20
70
40
63.5
0
CIRCLE
5
59
100
AcDbEntity
8
220 5"
6
ByLayer
62
256
370
-1
100
AcDbCircle
10
84.8528137424
20
-70
40
63.5
0
CIRCLE
5
5A
100
AcDbEntity
8
250 5" 6"
6
ByLayer
62
256
370
-1
100
AcDbCircle
10
-94.3451111611
20
-82
40
77
0
CIRCLE
5
5B
100
AcDbEntity
8
250 5" 6"
6
ByLayer
62
256
370
-1
100
AcDbCircle
10
-94.3451111611
20
-82
40
63.5
0
CIRCLE
5
5C
100
AcDbEntity
8
250 5" 6"
6
ByLayer
62
256
370
-1
100
AcDbCircle
10
94.3451111611
20
82
40
77
0
CIRCLE
5
5D
100
AcDbEntity
8
250 5" 6"
6
ByLayer
62
256
370
-1
100
AcDbCircle
10
94.3451111611
20
82
40
63.5
0
CIRCLE
5
5E
100
AcDbEntity
8
250 5" 6"
6
ByLayer
62
256
370
-1
100
AcDbCircle
10
94.3451111611
20
-82
40
77
0
CIRCLE
5
5F
100
AcDbEntity
8
250 5" 6"
6
ByLayer
62
256
370
-1
100
AcDbCircle
10
94.3451111611
20
-82
40
63.5
0
LINE
5
60
100
AcDbEntity
8
220 5"
6
ByLayer
62
256
370
-1
100
AcDbLine
10
84.8528137424
20
-70
11
-84.8528137424
21
-70
0
LINE
5
61
100
AcDbEntity
8
220 5"
6
ByLayer
62
256
370
-1
100
AcDbLine
10
-84.8528137424
20
-70
11
-84.8528137424
21
70
0
LINE
5
62
100
AcDbEntity
8
220 5"
6
ByLayer
62
256
370
-1
100
AcDbLine
10
-84.8528137424
20
70
11
84.8528137424
21
70
0
LINE
5
63
100
AcDbEntity
8
220 5"
6
ByLayer
62
256
370
-1
100
AcDbLine
10
84.8528137424
20
70
11
84.8528137424
21
-70
0
LINE
5
64
100
AcDbEntity
8
220 5"
6
ByLayer
62
256
370
-1
100
AcDbLine
10
-84.8528137424
20
70
11
84.8528137424
21
-70
0
LINE
5
65
100
AcDbEntity
8
220 5"
6
ByLayer
62
256
370
-1
100
AcDbLine
10
84.8528137424
20
-70
11
84.8528137424
21
70
0
LINE
5
66
100
AcDbEntity
8
220 5"
6
ByLayer
62
256
370
-1
100
AcDbLine
10
84.8528137424
20
70
11
-84.8528137424
21
-70
0
CIRCLE
5
67
100
AcDbEntity
8
1 - construction
6
ByLayer
62
256
370
-1
100
AcDbCircle
10
-84.8528137424
20
70
40
8
0
CIRCLE
5
68
100
AcDbEntity
8
1 - construction
6
ByLayer
62
256
370
-1
100
AcDbCircle
10
-84.8528137424
20
70
40
9.5
0
CIRCLE
5
69
100
AcDbEntity
8
1 - construction
6
ByLayer
62
256
370
-1
100
AcDbCircle
10
84.8528137424
20
70
40
8
0
CIRCLE
5
6A
100
AcDbEntity
8
1 - construction
6
ByLayer
62
256
370
-1
100
AcDbCircle
10
84.8528137424
20
70
40
9.5
0
CIRCLE
5
6B
100
AcDbEntity
8
1 - construction
6
ByLayer
62
256
370
-1
100
AcDbCircle
10
-84.8528137424
20
-70
40
8
0
CIRCLE
5
6C
100
AcDbEntity
8
1 - construction
6
ByLayer
62
256
370
-1
100
AcDbCircle
10
-84.8528137424
20
-70
40
9.5
0
CIRCLE
5
6D
100
AcDbEntity
8
1 - construction
6
ByLayer
62
256
370
-1
100
AcDbCircle
10
84.8528137424
20
-70
40
8
0
CIRCLE
5
6E
100
AcDbEntity
8
1 - construction
6
ByLayer
62
256
370
-1
100
AcDbCircle
10
84.8528137424
20
-70
40
9.5
0
CIRCLE
5
6F
100
AcDbEntity
8
220 5"
6
ByLayer
62
256
370
-1
100
AcDbCircle
10
0
20
0
40
46.5
0
LINE
5
70
100
AcDbEntity
8
1 - construction
6
ByLayer
62
256
370
-1
100
AcDbLine
10
-191.5
20
100
11
-191.5
21
110
0
LINE
5
71
100
AcDbEntity
8
1 - construction
6
ByLayer
62
256
370
-1
100
AcDbLine
10
-208.5
20
100
11
-208.5
21
110
0
LINE
5
72
100
AcDbEntity
8
1 - construction
6
ByLayer
62
256
370
-1
100
AcDbLine
10
23
20
0
11
23
21
1
0
LINE
5
73
100
AcDbEntity
8
1 - construction
6
ByLayer
62
256
370
-1
100
AcDbLine
10
-23
20
0
11
-23
21
24.1340038326
0
LINE
5
74
100
AcDbEntity
8
1 - construction
6
ByLayer
62
256
370
-1
100
AcDbLine
10
-2.77555756156e-017
20
99.9
11
5.84547601296e-016
21
109.9
0
LWPOLYLINE
5
75
100
AcDbEntity
8
NanoTech 1300
6
ByLayer
62
256
370
-1
100
AcDbPolyline
90
4
70
1
43
0
10
-17.5
20
-36
10
17.5
20
-36
10
17.5
20
36
10
-17.5
20
36
0
LWPOLYLINE
5
76
100
AcDbEntity
8
Zippy 2200
6
ByLayer
62
256
370
-1
100
AcDbPolyline
90
4
70
1
43
0
10
-17.5
20
-53
10
17.5
20
-53
10
17.5
20
53
10
-17.5
20
53
0
LWPOLYLINE
5
77
100
AcDbEntity
8
Naze32
6
ByLayer
62
256
370
-1
100
AcDbPolyline
90
8
70
1
43
0
10
15.25
20
-18
42
0.414213562373
10
18
20
-15.25
10
18
20
15.25
42
0.414213562373
10
15.25
20
18
10
-15.25
20
18
42
0.414213562373
10
-18
20
15.25
10
-18
20
-15.25
42
0.414213562373
10
-15.25
20
-18
0
LINE
5
78
100
AcDbEntity
8
Naze32
6
ByLayer
62
256
370
-1
100
AcDbLine
10
-18
20
-35
11
18
21
-35
0
CIRCLE
5
79
100
AcDbEntity
8
0
6
ByLayer
62
256
370
-1
100
AcDbCircle
10
-15.25
20
25
40
1.5
0
CIRCLE
5
7A
100
AcDbEntity
8
0
6
ByLayer
62
256
370
-1
100
AcDbCircle
10
15.25
20
25
40
1.5
0
CIRCLE
5
7B
100
AcDbEntity
8
0
6
ByLayer
62
256
370
-1
100
AcDbCircle
10
-15.25
20
-25
40
1.5
0
CIRCLE
5
7C
100
AcDbEntity
8
0
6
ByLayer
62
256
370
-1
100
AcDbCircle
10
15.25
20
-25
40
1.5
0
LINE
5
7D
100
AcDbEntity
8
1 - construction
6
ByLayer
62
256
370
-1
100
AcDbLine
10
0.863332133018
20
40.2247553509
11
-17.7011623629
21
47.6651548099
0
LINE
5
7E
100
AcDbEntity
8
1 - construction
6
ByLayer
62
256
370
-1
100
AcDbLine
10
-2.29883763708
20
32.3348451901
11
-20.863332133
21
39.7752446491
0
LINE
5
7F
100
AcDbEntity
8
1 - construction
6
ByLayer
62
256
370
-1
100
AcDbLine
10
-84.8528137424
20
70
11
-10
21
40
0
CIRCLE
5
80
100
AcDbEntity
8
1 - construction
6
ByLayer
62
256
370
-1
100
AcDbCircle
10
-13.944955211
20
41.5810845593
40
4.25
0
LINE
5
81
100
AcDbEntity
8
1 - construction
6
ByLayer
62
256
370
-1
100
AcDbLine
10
-21.6101100209
20
33.8799221963
11
-14.1697105618
21
52.4444166923
0
LINE
5
82
100
AcDbEntity
8
1 - construction
6
ByLayer
62
256
370
-1
100
AcDbLine
10
-13.7201998601
20
30.7177524262
11
-6.27980040104
21
49.2822469222
0
CIRCLE
5
83
100
AcDbEntity
8
0
6
ByLayer
62
256
370
-1
100
AcDbCircle
10
-16.3088254063
20
47.1071245247
40
1.425
0
CIRCLE
5
84
100
AcDbEntity
8
0
6
ByLayer
62
256
370
-1
100
AcDbCircle
10
-8.41891524552
20
43.9449547546
40
1.425
0
CIRCLE
5
85
100
AcDbEntity
8
0
6
ByLayer
62
256
370
-1
100
AcDbCircle
10
-11.5810850156
20
36.0550445938
40
1.425
0
CIRCLE
5
86
100
AcDbEntity
8
0
6
ByLayer
62
256
370
-1
100
AcDbCircle
10
-19.4709951764
20
39.2172143639
40
1.425
0
LINE
5
87
100
AcDbEntity
8
1 - construction
6
ByLayer
62
256
370
-1
100
AcDbLine
10
-88.573013472
20
60.717752752
11
-81.1326140129
21
79.282247248
0
LINE
5
88
100
AcDbEntity
8
1 - construction
6
ByLayer
62
256
370
-1
100
AcDbLine
10
-84.8528137424
20
70
11
-85.2461098942
21
70.919411843
0
LINE
5
89
100
AcDbEntity
8
1 - construction
6
ByLayer
62
256
370
-1
100
AcDbLine
10
-84.8528137424
20
70
11
-85.7722255854
21
69.6067038482
0
CIRCLE
5
8A
100
AcDbEntity
8
0 - arm
6
ByLayer
62
256
370
-1
100
AcDbCircle
10
-92.2081084863
20
66.853630786
40
1.5
0
CIRCLE
5
8B
100
AcDbEntity
8
0 - arm
6
ByLayer
62
256
370
-1
100
AcDbCircle
10
-81.1165003007
20
61.2655874917
40
1.5
0
CIRCLE
5
8C
100
AcDbEntity
8
0 - arm
6
ByLayer
62
256
370
-1
100
AcDbCircle
10
-77.4975189986
20
73.1463692141
40
1.5
0
CIRCLE
5
8D
100
AcDbEntity
8
0 - arm
6
ByLayer
62
256
370
-1
100
AcDbCircle
10
-88.5891271841
20
78.7344125083
40
1.5
0
CIRCLE
5
8E
100
AcDbEntity
8
0 - arm
6
ByLayer
62
256
370
-1
100
AcDbCircle
10
-16.3088252757
20
47.1071248505
40
1.425
0
CIRCLE
5
8F
100
AcDbEntity
8
0 - arm
6
ByLayer
62
256
370
-1
100
AcDbCircle
10
-8.41891511495
20
43.9449550804
40
1.425
0
CIRCLE
5
90
100
AcDbEntity
8
0 - arm
6
ByLayer
62
256
370
-1
100
AcDbCircle
10
-11.581084885
20
36.0550449196
40
1.425
0
CIRCLE
5
91
100
AcDbEntity
8
0 - arm
6
ByLayer
62
256
370
-1
100
AcDbCircle
10
-19.4709950458
20
39.2172146897
40
1.425
0
LINE
5
92
100
AcDbEntity
8
1 - construction
6
ByLayer
62
256
370
-1
100
AcDbLine
10
-4.63634970153
20
49.3507689778
11
-23.2008441975
21
56.7911684368
0
LINE
5
93
100
AcDbEntity
8
1 - construction
6
ByLayer
62
256
370
-1
100
AcDbLine
10
-12.5789784525
20
29.533170196
11
-31.1434716773
21
36.9735728267
0
LINE
5
94
100
AcDbEntity
8
1 - construction
6
ByLayer
62
256
370
-1
100
AcDbLine
10
1.2651284714
20
50.8369740021
11
-6.17527098766
21
32.2724795062
0
LINE
5
95
100
AcDbEntity
8
1 - construction
6
ByLayer
62
256
370
-1
100
AcDbLine
10
-18.566447068
20
58.7758496934
11
-25.9917545963
21
40.2053136723
0
CIRCLE
5
96
100
AcDbEntity
8
1 - construction
6
ByLayer
62
256
370
-1
100
AcDbCircle
10
-13.944955211
20
41.5810845593
40
8.5
0
LINE
5
97
100
AcDbEntity
8
1 - construction
6
ByLayer
62
256
370
-1
100
AcDbLine
10
-17.6651549405
20
32.2988373113
11
-10.2247554814
21
50.8633318072
0
LINE
5
98
100
AcDbEntity
8
1 - construction
6
ByLayer
62
256
370
-1
100
AcDbLine
10
-1.50053819289
20
45.7507949905
11
-20.0650326888
21
53.1911944496
0
LINE
5
99
100
AcDbEntity
8
1 - construction
6
ByLayer
62
256
370
-1
100
AcDbLine
10
-7.82487773309
20
29.970974669
11
-26.389372229
21
37.411374128
0
CIRCLE
5
9A
100
AcDbEntity
8
0 - arm
6
ByLayer
62
256
370
-1
100
AcDbCircle
10
-84.8528137424
20
70
40
4
0
LINE
5
9B
100
AcDbEntity
8
1 - construction
6
ByLayer
62
256
370
-1
100
AcDbLine
10
-20.1157174655
20
54.9011574178
11
-10.1157174655
21
54.9011574178
0
CIRCLE
5
9C
100
AcDbEntity
8
0 - arm
6
ByLayer
62
256
370
-1
100
AcDbCircle
10
-92.2081084863
20
-66.853630786
40
1.5
0
CIRCLE
5
9D
100
AcDbEntity
8
0 - arm
6
ByLayer
62
256
370
-1
100
AcDbCircle
10
-81.1165003007
20
-61.2655874917
40
1.5
0
CIRCLE
5
9E
100
AcDbEntity
8
0 - arm
6
ByLayer
62
256
370
-1
100
AcDbCircle
10
-77.4975189986
20
-73.1463692141
40
1.5
0
CIRCLE
5
9F
100
AcDbEntity
8
0 - arm
6
ByLayer
62
256
370
-1
100
AcDbCircle
10
-88.5891271841
20
-78.7344125083
40
1.5
0
CIRCLE
5
A0
100
AcDbEntity
8
0 - arm
6
ByLayer
62
256
370
-1
100
AcDbCircle
10
-16.3088252757
20
-47.1071248505
40
1.425
0
CIRCLE
5
A1
100
AcDbEntity
8
0 - arm
6
ByLayer
62
256
370
-1
100
AcDbCircle
10
-8.41891511495
20
-43.9449550804
40
1.425
0
CIRCLE
5
A2
100
AcDbEntity
8
0 - arm
6
ByLayer
62
256
370
-1
100
AcDbCircle
10
-11.581084885
20
-36.0550449196
40
1.425
0
CIRCLE
5
A3
100
AcDbEntity
8
0 - arm
6
ByLayer
62
256
370
-1
100
AcDbCircle
10
-19.4709950458
20
-39.2172146897
40
1.425
0
CIRCLE
5
A4
100
AcDbEntity
8
0 - arm
6
ByLayer
62
256
370
-1
100
AcDbCircle
10
-84.8528137424
20
-70
40
4
0
CIRCLE
5
A5
100
AcDbEntity
8
0 - arm
6
ByLayer
62
256
370
-1
100
AcDbCircle
10
92.2081084863
20
66.853630786
40
1.5
0
CIRCLE
5
A6
100
AcDbEntity
8
0 - arm
6
ByLayer
62
256
370
-1
100
AcDbCircle
10
81.1165003007
20
61.2655874917
40
1.5
0
CIRCLE
5
A7
100
AcDbEntity
8
0 - arm
6
ByLayer
62
256
370
-1
100
AcDbCircle
10
77.4975189986
20
73.1463692141
40
1.5
0
CIRCLE
5
A8
100
AcDbEntity
8
0 - arm
6
ByLayer
62
256
370
-1
100
AcDbCircle
10
88.5891271841
20
78.7344125083
40
1.5
0
CIRCLE
5
A9
100
AcDbEntity
8
0 - arm
6
ByLayer
62
256
370
-1
100
AcDbCircle
10
16.3088252757
20
47.1071248505
40
1.425
0
CIRCLE
5
AA
100
AcDbEntity
8
0 - arm
6
ByLayer
62
256
370
-1
100
AcDbCircle
10
8.41891511495
20
43.9449550804
40
1.425
0
CIRCLE
5
AB
100
AcDbEntity
8
0 - arm
6
ByLayer
62
256
370
-1
100
AcDbCircle
10
11.581084885
20
36.0550449196
40
1.425
0
CIRCLE
5
AC
100
AcDbEntity
8
0 - arm
6
ByLayer
62
256
370
-1
100
AcDbCircle
10
19.4709950458
20
39.2172146897
40
1.425
0
CIRCLE
5
AD
100
AcDbEntity
8
0 - arm
6
ByLayer
62
256
370
-1
100
AcDbCircle
10
84.8528137424
20
70
40
4
0
CIRCLE
5
AE
100
AcDbEntity
8
0 - arm
6
ByLayer
62
256
370
-1
100
AcDbCircle
10
92.2081084863
20
-66.853630786
40
1.5
0
CIRCLE
5
AF
100
AcDbEntity
8
0 - arm
6
ByLayer
62
256
370
-1
100
AcDbCircle
10
81.1165003007
20
-61.2655874917
40
1.5
0
CIRCLE
5
B0
100
AcDbEntity
8
0 - arm
6
ByLayer
62
256
370
-1
100
AcDbCircle
10
77.4975189986
20
-73.1463692141
40
1.5
0
CIRCLE
5
B1
100
AcDbEntity
8
0 - arm
6
ByLayer
62
256
370
-1
100
AcDbCircle
10
88.5891271841
20
-78.7344125083
40
1.5
0
CIRCLE
5
B2
100
AcDbEntity
8
0 - arm
6
ByLayer
62
256
370
-1
100
AcDbCircle
10
16.3088252757
20
-47.1071248505
40
1.425
0
CIRCLE
5
B3
100
AcDbEntity
8
0 - arm
6
ByLayer
62
256
370
-1
100
AcDbCircle
10
8.41891511495
20
-43.9449550804
40
1.425
0
CIRCLE
5
B4
100
AcDbEntity
8
0 - arm
6
ByLayer
62
256
370
-1
100
AcDbCircle
10
11.581084885
20
-36.0550449196
40
1.425
0
CIRCLE
5
B5
100
AcDbEntity
8
0 - arm
6
ByLayer
62
256
370
-1
100
AcDbCircle
10
19.4709950458
20
-39.2172146897
40
1.425
0
CIRCLE
5
B6
100
AcDbEntity
8
0 - arm
6
ByLayer
62
256
370
-1
100
AcDbCircle
10
84.8528137424
20
-70
40
4
0
CIRCLE
5
B7
100
AcDbEntity
8
0
6
ByLayer
62
256
370
-1
100
AcDbCircle
10
16.3088254063
20
47.1071245247
40
1.425
0
CIRCLE
5
B8
100
AcDbEntity
8
0
6
ByLayer
62
256
370
-1
100
AcDbCircle
10
8.41891524552
20
43.9449547546
40
1.425
0
CIRCLE
5
B9
100
AcDbEntity
8
0
6
ByLayer
62
256
370
-1
100
AcDbCircle
10
11.5810850156
20
36.0550445938
40
1.425
0
CIRCLE
5
BA
100
AcDbEntity
8
0
6
ByLayer
62
256
370
-1
100
AcDbCircle
10
19.4709951764
20
39.2172143639
40
1.425
0
CIRCLE
5
BB
100
AcDbEntity
8
0
6
ByLayer
62
256
370
-1
100
AcDbCircle
10
-16.3088254063
20
-47.1071245247
40
1.425
0
CIRCLE
5
BC
100
AcDbEntity
8
0
6
ByLayer
62
256
370
-1
100
AcDbCircle
10
-8.41891524552
20
-43.9449547546
40
1.425
0
CIRCLE
5
BD
100
AcDbEntity
8
0
6
ByLayer
62
256
370
-1
100
AcDbCircle
10
-11.5810850156
20
-36.0550445938
40
1.425
0
CIRCLE
5
BE
100
AcDbEntity
8
0
6
ByLayer
62
256
370
-1
100
AcDbCircle
10
-19.4709951764
20
-39.2172143639
40
1.425
0
CIRCLE
5
BF
100
AcDbEntity
8
0
6
ByLayer
62
256
370
-1
100
AcDbCircle
10
16.3088254063
20
-47.1071245247
40
1.425
0
CIRCLE
5
C0
100
AcDbEntity
8
0
6
ByLayer
62
256
370
-1
100
AcDbCircle
10
8.41891524552
20
-43.9449547546
40
1.425
0
CIRCLE
5
C1
100
AcDbEntity
8
0
6
ByLayer
62
256
370
-1
100
AcDbCircle
10
11.5810850156
20
-36.0550445938
40
1.425
0
CIRCLE
5
C2
100
AcDbEntity
8
0
6
ByLayer
62
256
370
-1
100
AcDbCircle
10
19.4709951764
20
-39.2172143639
40
1.425
0
LWPOLYLINE
5
C3
100
AcDbEntity
8
0
6
ByLayer
62
256
370
-1
100
AcDbPolyline
90
16
70
1
43
0
10
23
20
-24.1340035051
10
27.5919704702
20
-36.2032078451
10
20.1157174655
20
-54.9011574178
10
-2.78367863175e-015
20
-54.9011574178
10
-20.1157174655
20
-54.9011574178
10
-27.5919704702
20
-36.2032078451
10
-23
20
-24.1340035051
10
-23
20
0
10
-23
20
24.1340035051
10
-27.5919704702
20
36.2032078451
10
-20.1157174655
20
54.9011574178
10
2.78304900266e-015
20
54.9011574178
10
20.1157174655
20
54.9011574178
10
27.5919704702
20
36.2032078451
10
23
20
24.1340035051
10
23
20
0
0
LWPOLYLINE
5
C4
100
AcDbEntity
8
0
6
ByLayer
62
256
370
-1
100
AcDbPolyline
90
8
70
1
43
0
10
6.5
20
-7.5
42
0.414213562373
10
7.5
20
-6.5
10
7.5
20
6.5
42
0.414213562373
10
6.5
20
7.5
10
-6.5
20
7.5
42
0.414213562373
10
-7.5
20
6.5
10
-7.5
20
-6.5
42
0.414213562373
10
-6.5
20
-7.5
0
POINT
5
C5
100
AcDbEntity
8
0 - arm
6
ByLayer
62
256
370
-1
100
AcDbPoint
10
-40.8417703811
20
62.7363276988
0
POINT
5
C6
100
AcDbEntity
8
0 - arm
6
ByLayer
62
256
370
-1
100
AcDbPoint
10
-40.8417703811
20
62.7363276988
0
POINT
5
C7
100
AcDbEntity
8
0 - arm
6
ByLayer
62
256
370
-1
100
AcDbPoint
10
-40.8417703811
20
62.7363276988
0
POINT
5
C8
100
AcDbEntity
8
0 - arm
6
ByLayer
62
256
370
-1
100
AcDbPoint
10
-40.8417703811
20
62.7363276988
0
LWPOLYLINE
5
C9
100
AcDbEntity
8
0 - arm
6
ByLayer
62
256
370
-1
100
AcDbPolyline
90
8
70
1
43
0
10
-17.4445876462
20
31.7979149968
42
0.4225549039
10
-4.18010721497
20
37.2506002483
10
-3.89220592848
20
37.9689409608
42
0.422554896858
10
-9.71928596224
20
51.073266623
10
-71.2821061262
20
73.7402512062
42
-0.220391412811
10
-72.1727293139
20
74.6330830865
42
2.61110264208
10
-78.882323798
20
57.8920171034
42
-0.220391402236
10
-77.621601049
20
57.9226184176
0
LWPOLYLINE
5
CA
100
AcDbEntity
8
0 - arm
6
ByLayer
62
256
370
-1
100
AcDbPolyline
90
8
70
1
43
0
10
17.4445876462
20
31.7979149968
42
-0.4225549039
10
4.18010721497
20
37.2506002483
10
3.89220592848
20
37.9689409608
42
-0.422554896858
10
9.71928596224
20
51.073266623
10
71.2821061262
20
73.7402512062
42
0.220391412811
10
72.1727293139
20
74.6330830865
42
-2.61110264208
10
78.882323798
20
57.8920171034
42
0.220391402236
10
77.621601049
20
57.9226184176
0
LWPOLYLINE
5
CB
100
AcDbEntity
8
0 - arm
6
ByLayer
62
256
370
-1
100
AcDbPolyline
90
8
70
1
43
0
10
-17.4445876462
20
-31.7979149968
42
-0.4225549039
10
-4.18010721497
20
-37.2506002483
10
-3.89220592848
20
-37.9689409608
42
-0.422554896858
10
-9.71928596224
20
-51.073266623
10
-71.2821061262
20
-73.7402512062
42
0.220391412811
10
-72.1727293139
20
-74.6330830865
42
-2.61110264208
10
-78.882323798
20
-57.8920171034
42
0.220391402236
10
-77.621601049
20
-57.9226184176
0
LWPOLYLINE
5
CC
100
AcDbEntity
8
0 - arm
6
ByLayer
62
256
370
-1
100
AcDbPolyline
90
8
70
1
43
0
10
17.4445876462
20
-31.7979149968
42
0.4225549039
10
4.18010721497
20
-37.2506002483
10
3.89220592848
20
-37.9689409608
42
0.422554896858
10
9.71928596224
20
-51.073266623
10
71.2821061262
20
-73.7402512062
42
-0.220391412811
10
72.1727293139
20
-74.6330830865
42
2.61110264208
10
78.882323798
20
-57.8920171034
42
-0.220391402236
10
77.621601049
20
-57.9226184176
0
ENDSEC
0
SECTION
2
OBJECTS
0
DICTIONARY
5
C
330
0
100
AcDbDictionary
281
1
3
ACAD_GROUP
350
D
0
DICTIONARY
5
D
330
C
100
AcDbDictionary
281
1
0
ENDSEC
0
EOF
