<!DOCTYPE svg PUBLIC "-//W3C//DTD SVG 1.1//EN" "http://www.w3.org/Graphics/SVG/1.1/DTD/svg11.dtd">
<svg width="161.54mm" height="38.85mm" viewBox="0 0 161.54 38.85" xmlns="http://www.w3.org/2000/svg" version="1.1" xmlns:xlink="http://www.w3.org/1999/xlink">
<title>Airfoil plot (n63015a-il) NACA 63-015A AIRFOIL by AirfoilTools.com</title>
<g transform="translate(4.572,15.995904)"><g transform="scale(1,-1)"><line fill="none" stroke="green" stroke-width="0.08" x1="10" x2="10" y1="-16" y2="16"></line><line fill="none" stroke="green" stroke-width="0.08" x1="20" x2="20" y1="-16" y2="16"></line><line fill="none" stroke="green" stroke-width="0.08" x1="30" x2="30" y1="-16" y2="16"></line><line fill="none" stroke="green" stroke-width="0.08" x1="40" x2="40" y1="-16" y2="16"></line><line fill="none" stroke="green" stroke-width="0.08" x1="50" x2="50" y1="-16" y2="16"></line><line fill="none" stroke="green" stroke-width="0.08" x1="60" x2="60" y1="-16" y2="16"></line><line fill="none" stroke="green" stroke-width="0.08" x1="70" x2="70" y1="-16" y2="16"></line><line fill="none" stroke="green" stroke-width="0.08" x1="80" x2="80" y1="-16" y2="16"></line><line fill="none" stroke="green" stroke-width="0.08" x1="90" x2="90" y1="-16" y2="16"></line><line fill="none" stroke="green" stroke-width="0.08" x1="100" x2="100" y1="-16" y2="16"></line><line fill="none" stroke="green" stroke-width="0.08" x1="110" x2="110" y1="-16" y2="16"></line><line fill="none" stroke="green" stroke-width="0.08" x1="120" x2="120" y1="-16" y2="16"></line><line fill="none" stroke="green" stroke-width="0.08" x1="130" x2="130" y1="-16" y2="16"></line><line fill="none" stroke="green" stroke-width="0.08" x1="140" x2="140" y1="-16" y2="16"></line><line fill="none" stroke="green" stroke-width="0.08" x1="150" x2="150" y1="-16" y2="16"></line><line fill="none" stroke="green" stroke-width="0.08" x1="-4.57" x2="156.97" y1="10" y2="10"></line><line fill="none" stroke="green" stroke-width="0.08" x1="-4.57" x2="156.97" y1="-10" y2="-10"></line>
<path fill="none" stroke="red" stroke-width="0.15" d="M 152.4 0.05 L 144.78 1.18 L 137.16 2.3 L 129.54 3.43 L 121.92 4.56 L 114.3 5.69 L 106.68 6.81 L 99.06 7.88 L 91.44 8.87 L 83.82 9.73 L 76.2 10.45 L 68.58 11 L 60.96 11.33 L 53.34 11.42 L 45.72 11.25 L 38.1 10.81 L 30.48 10.09 L 22.86 9.06 L 15.24 7.62 L 11.43 6.68 L 7.62 5.51 L 3.81 3.93 L 1.91 2.81 L 1.14 2.21 L 0.76 1.83 L 0 0 L 0.76 -1.83 L 1.14 -2.21 L 1.91 -2.81 L 3.81 -3.93 L 7.62 -5.51 L 11.43 -6.68 L 15.24 -7.62 L 22.86 -9.06 L 30.48 -10.09 L 38.1 -10.81 L 45.72 -11.25 L 53.34 -11.42 L 60.96 -11.33 L 68.58 -11 L 76.2 -10.45 L 83.82 -9.73 L 91.44 -8.87 L 99.06 -7.88 L 106.68 -6.81 L 114.3 -5.69 L 121.92 -4.56 L 129.54 -3.43 L 137.16 -2.3 L 144.78 -1.18 L 152.4 -0.05 "></path>
<path fill="none" stroke="blue" stroke-width="0.15" d="M 0 0 L 152.4 0 "></path>
<line fill="none" stroke="black" stroke-width="0.15" x1="-4.57" x2="156.97" y1="0" y2="0"></line>
<line fill="none" stroke="black" stroke-width="0.15" x1="0" x2="0" y1="-16" y2="16"></line>
</g>
</g>
<g transform="translate(0,31.991808)"><g transform="scale(1.524,1.524)"><text fill="rgb(48,48,144)" font-size="1.8" style="font-family:Arial,Helvetica,sans-serif;" x="1" y="2">Name = NACA 63-015A AIRFOIL</text><text fill="rgb(48,48,144)" font-size="1.8" style="font-family:Arial,Helvetica,sans-serif;" x="1" y="4">Chord = 152.4mm  Radius = 0mm  Thickness = 100%  Origin = 0%  Pitch = 0&#176; </text></g></g></svg>