<!DOCTYPE svg PUBLIC "-//W3C//DTD SVG 1.1//EN" "http://www.w3.org/Graphics/SVG/1.1/DTD/svg11.dtd">
<svg width="215.39mm" height="51.8mm" viewBox="0 0 215.39 51.8" xmlns="http://www.w3.org/2000/svg" version="1.1" xmlns:xlink="http://www.w3.org/1999/xlink">
<title>Airfoil plot (n63015a-il) NACA 63-015A AIRFOIL by AirfoilTools.com</title>
<g transform="translate(6.096,21.327872)"><g transform="scale(1,-1)"><line fill="none" stroke="green" stroke-width="0.1" x1="10" x2="10" y1="-21.33" y2="21.33"></line><line fill="none" stroke="green" stroke-width="0.1" x1="20" x2="20" y1="-21.33" y2="21.33"></line><line fill="none" stroke="green" stroke-width="0.1" x1="30" x2="30" y1="-21.33" y2="21.33"></line><line fill="none" stroke="green" stroke-width="0.1" x1="40" x2="40" y1="-21.33" y2="21.33"></line><line fill="none" stroke="green" stroke-width="0.1" x1="50" x2="50" y1="-21.33" y2="21.33"></line><line fill="none" stroke="green" stroke-width="0.1" x1="60" x2="60" y1="-21.33" y2="21.33"></line><line fill="none" stroke="green" stroke-width="0.1" x1="70" x2="70" y1="-21.33" y2="21.33"></line><line fill="none" stroke="green" stroke-width="0.1" x1="80" x2="80" y1="-21.33" y2="21.33"></line><line fill="none" stroke="green" stroke-width="0.1" x1="90" x2="90" y1="-21.33" y2="21.33"></line><line fill="none" stroke="green" stroke-width="0.1" x1="100" x2="100" y1="-21.33" y2="21.33"></line><line fill="none" stroke="green" stroke-width="0.1" x1="110" x2="110" y1="-21.33" y2="21.33"></line><line fill="none" stroke="green" stroke-width="0.1" x1="120" x2="120" y1="-21.33" y2="21.33"></line><line fill="none" stroke="green" stroke-width="0.1" x1="130" x2="130" y1="-21.33" y2="21.33"></line><line fill="none" stroke="green" stroke-width="0.1" x1="140" x2="140" y1="-21.33" y2="21.33"></line><line fill="none" stroke="green" stroke-width="0.1" x1="150" x2="150" y1="-21.33" y2="21.33"></line><line fill="none" stroke="green" stroke-width="0.1" x1="160" x2="160" y1="-21.33" y2="21.33"></line><line fill="none" stroke="green" stroke-width="0.1" x1="170" x2="170" y1="-21.33" y2="21.33"></line><line fill="none" stroke="green" stroke-width="0.1" x1="180" x2="180" y1="-21.33" y2="21.33"></line><line fill="none" stroke="green" stroke-width="0.1" x1="190" x2="190" y1="-21.33" y2="21.33"></line><line fill="none" stroke="green" stroke-width="0.1" x1="200" x2="200" y1="-21.33" y2="21.33"></line><line fill="none" stroke="green" stroke-width="0.1" x1="-6.1" x2="209.3" y1="10" y2="10"></line><line fill="none" stroke="green" stroke-width="0.1" x1="-6.1" x2="209.3" y1="20" y2="20"></line><line fill="none" stroke="green" stroke-width="0.1" x1="-6.1" x2="209.3" y1="-10" y2="-10"></line><line fill="none" stroke="green" stroke-width="0.1" x1="-6.1" x2="209.3" y1="-20" y2="-20"></line>
<path fill="none" stroke="red" stroke-width="0.2" d="M 203.2 0.07 L 193.04 1.57 L 182.88 3.07 L 172.72 4.58 L 162.56 6.08 L 152.4 7.58 L 142.24 9.08 L 132.08 10.51 L 121.92 11.83 L 111.76 12.98 L 101.6 13.94 L 91.44 14.66 L 81.28 15.11 L 71.12 15.23 L 60.96 15 L 50.8 14.41 L 40.64 13.45 L 30.48 12.07 L 20.32 10.15 L 15.24 8.9 L 10.16 7.35 L 5.08 5.24 L 2.54 3.75 L 1.52 2.94 L 1.02 2.44 L 0 0 L 1.02 -2.44 L 1.52 -2.94 L 2.54 -3.75 L 5.08 -5.24 L 10.16 -7.35 L 15.24 -8.9 L 20.32 -10.15 L 30.48 -12.07 L 40.64 -13.45 L 50.8 -14.41 L 60.96 -15 L 71.12 -15.23 L 81.28 -15.11 L 91.44 -14.66 L 101.6 -13.94 L 111.76 -12.98 L 121.92 -11.83 L 132.08 -10.51 L 142.24 -9.08 L 152.4 -7.58 L 162.56 -6.08 L 172.72 -4.58 L 182.88 -3.07 L 193.04 -1.57 L 203.2 -0.07 "></path>
<path fill="none" stroke="blue" stroke-width="0.2" d="M 0 0 L 203.2 0 "></path>
<line fill="none" stroke="black" stroke-width="0.2" x1="-6.1" x2="209.3" y1="0" y2="0"></line>
<line fill="none" stroke="black" stroke-width="0.2" x1="0" x2="0" y1="-21.33" y2="21.33"></line>
</g>
</g>
<g transform="translate(0,42.655744)"><g transform="scale(2.032,2.032)"><text fill="rgb(48,48,144)" font-size="1.8" style="font-family:Arial,Helvetica,sans-serif;" x="1" y="2">Name = NACA 63-015A AIRFOIL</text><text fill="rgb(48,48,144)" font-size="1.8" style="font-family:Arial,Helvetica,sans-serif;" x="1" y="4">Chord = 203.2mm  Radius = 0mm  Thickness = 100%  Origin = 0%  Pitch = 0&#176; </text></g></g></svg>