<!DOCTYPE svg PUBLIC "-//W3C//DTD SVG 1.1//EN" "http://www.w3.org/Graphics/SVG/1.1/DTD/svg11.dtd">
<svg width="323.09mm" height="77.7mm" viewBox="0 0 323.09 77.7" xmlns="http://www.w3.org/2000/svg" version="1.1" xmlns:xlink="http://www.w3.org/1999/xlink">
<title>Airfoil plot (n63015a-il) NACA 63-015A AIRFOIL by AirfoilTools.com</title>
<g transform="translate(9.144,31.991808)"><g transform="scale(1,-1)"><line fill="none" stroke="green" stroke-width="0.15" x1="10" x2="10" y1="-31.99" y2="31.99"></line><line fill="none" stroke="green" stroke-width="0.15" x1="20" x2="20" y1="-31.99" y2="31.99"></line><line fill="none" stroke="green" stroke-width="0.15" x1="30" x2="30" y1="-31.99" y2="31.99"></line><line fill="none" stroke="green" stroke-width="0.15" x1="40" x2="40" y1="-31.99" y2="31.99"></line><line fill="none" stroke="green" stroke-width="0.15" x1="50" x2="50" y1="-31.99" y2="31.99"></line><line fill="none" stroke="green" stroke-width="0.15" x1="60" x2="60" y1="-31.99" y2="31.99"></line><line fill="none" stroke="green" stroke-width="0.15" x1="70" x2="70" y1="-31.99" y2="31.99"></line><line fill="none" stroke="green" stroke-width="0.15" x1="80" x2="80" y1="-31.99" y2="31.99"></line><line fill="none" stroke="green" stroke-width="0.15" x1="90" x2="90" y1="-31.99" y2="31.99"></line><line fill="none" stroke="green" stroke-width="0.15" x1="100" x2="100" y1="-31.99" y2="31.99"></line><line fill="none" stroke="green" stroke-width="0.15" x1="110" x2="110" y1="-31.99" y2="31.99"></line><line fill="none" stroke="green" stroke-width="0.15" x1="120" x2="120" y1="-31.99" y2="31.99"></line><line fill="none" stroke="green" stroke-width="0.15" x1="130" x2="130" y1="-31.99" y2="31.99"></line><line fill="none" stroke="green" stroke-width="0.15" x1="140" x2="140" y1="-31.99" y2="31.99"></line><line fill="none" stroke="green" stroke-width="0.15" x1="150" x2="150" y1="-31.99" y2="31.99"></line><line fill="none" stroke="green" stroke-width="0.15" x1="160" x2="160" y1="-31.99" y2="31.99"></line><line fill="none" stroke="green" stroke-width="0.15" x1="170" x2="170" y1="-31.99" y2="31.99"></line><line fill="none" stroke="green" stroke-width="0.15" x1="180" x2="180" y1="-31.99" y2="31.99"></line><line fill="none" stroke="green" stroke-width="0.15" x1="190" x2="190" y1="-31.99" y2="31.99"></line><line fill="none" stroke="green" stroke-width="0.15" x1="200" x2="200" y1="-31.99" y2="31.99"></line><line fill="none" stroke="green" stroke-width="0.15" x1="210" x2="210" y1="-31.99" y2="31.99"></line><line fill="none" stroke="green" stroke-width="0.15" x1="220" x2="220" y1="-31.99" y2="31.99"></line><line fill="none" stroke="green" stroke-width="0.15" x1="230" x2="230" y1="-31.99" y2="31.99"></line><line fill="none" stroke="green" stroke-width="0.15" x1="240" x2="240" y1="-31.99" y2="31.99"></line><line fill="none" stroke="green" stroke-width="0.15" x1="250" x2="250" y1="-31.99" y2="31.99"></line><line fill="none" stroke="green" stroke-width="0.15" x1="260" x2="260" y1="-31.99" y2="31.99"></line><line fill="none" stroke="green" stroke-width="0.15" x1="270" x2="270" y1="-31.99" y2="31.99"></line><line fill="none" stroke="green" stroke-width="0.15" x1="280" x2="280" y1="-31.99" y2="31.99"></line><line fill="none" stroke="green" stroke-width="0.15" x1="290" x2="290" y1="-31.99" y2="31.99"></line><line fill="none" stroke="green" stroke-width="0.15" x1="300" x2="300" y1="-31.99" y2="31.99"></line><line fill="none" stroke="green" stroke-width="0.15" x1="310" x2="310" y1="-31.99" y2="31.99"></line><line fill="none" stroke="green" stroke-width="0.15" x1="-9.14" x2="313.94" y1="10" y2="10"></line><line fill="none" stroke="green" stroke-width="0.15" x1="-9.14" x2="313.94" y1="20" y2="20"></line><line fill="none" stroke="green" stroke-width="0.15" x1="-9.14" x2="313.94" y1="30" y2="30"></line><line fill="none" stroke="green" stroke-width="0.15" x1="-9.14" x2="313.94" y1="-10" y2="-10"></line><line fill="none" stroke="green" stroke-width="0.15" x1="-9.14" x2="313.94" y1="-20" y2="-20"></line><line fill="none" stroke="green" stroke-width="0.15" x1="-9.14" x2="313.94" y1="-30" y2="-30"></line>
<path fill="none" stroke="red" stroke-width="0.3" d="M 304.8 0.1 L 289.56 2.35 L 274.32 4.61 L 259.08 6.86 L 243.84 9.12 L 228.6 11.37 L 213.36 13.62 L 198.12 15.77 L 182.88 17.74 L 167.64 19.47 L 152.4 20.9 L 137.16 21.99 L 121.92 22.66 L 106.68 22.85 L 91.44 22.51 L 76.2 21.61 L 60.96 20.17 L 45.72 18.11 L 30.48 15.23 L 22.86 13.36 L 15.24 11.03 L 7.62 7.86 L 3.81 5.62 L 2.29 4.41 L 1.52 3.67 L 0 0 L 1.52 -3.67 L 2.29 -4.41 L 3.81 -5.62 L 7.62 -7.86 L 15.24 -11.03 L 22.86 -13.36 L 30.48 -15.23 L 45.72 -18.11 L 60.96 -20.17 L 76.2 -21.61 L 91.44 -22.51 L 106.68 -22.85 L 121.92 -22.66 L 137.16 -21.99 L 152.4 -20.9 L 167.64 -19.47 L 182.88 -17.74 L 198.12 -15.77 L 213.36 -13.62 L 228.6 -11.37 L 243.84 -9.12 L 259.08 -6.86 L 274.32 -4.61 L 289.56 -2.35 L 304.8 -0.1 "></path>
<path fill="none" stroke="blue" stroke-width="0.3" d="M 0 0 L 304.8 0 "></path>
<line fill="none" stroke="black" stroke-width="0.3" x1="-9.14" x2="313.94" y1="0" y2="0"></line>
<line fill="none" stroke="black" stroke-width="0.3" x1="0" x2="0" y1="-31.99" y2="31.99"></line>
</g>
</g>
<g transform="translate(0,63.983616)"><g transform="scale(3.048,3.048)"><text fill="rgb(48,48,144)" font-size="1.8" style="font-family:Arial,Helvetica,sans-serif;" x="1" y="2">Name = NACA 63-015A AIRFOIL</text><text fill="rgb(48,48,144)" font-size="1.8" style="font-family:Arial,Helvetica,sans-serif;" x="1" y="4">Chord = 304.8mm  Radius = 0mm  Thickness = 100%  Origin = 0%  Pitch = 0&#176; </text></g></g></svg>